<?xml version="1.0" encoding="UTF-8" standalone="no"?>
<!-- Created with Inkscape (http://www.inkscape.org/) -->

<svg
   width="3.9387207mm"
   height="3.9387207mm"
   viewBox="0 0 3.9387208 3.9387207"
   version="1.1"
   id="svg1"
   inkscape:version="1.3-dev (82aa67f2, 2022-10-21)"
   sodipodi:docname="random_colors.svg"
   xml:space="preserve"
   xmlns:inkscape="http://www.inkscape.org/namespaces/inkscape"
   xmlns:sodipodi="http://sodipodi.sourceforge.net/DTD/sodipodi-0.dtd"
   xmlns="http://www.w3.org/2000/svg"
   xmlns:svg="http://www.w3.org/2000/svg"><sodipodi:namedview
     id="namedview1"
     pagecolor="#000000"
     bordercolor="#e92727"
     borderopacity="1"
     inkscape:showpageshadow="2"
     inkscape:pageopacity="0.0"
     inkscape:pagecheckerboard="true"
     inkscape:deskcolor="#e2e2e2"
     inkscape:document-units="mm"
     showgrid="false"
     inkscape:zoom="1.9999999"
     inkscape:cx="-47.500002"
     inkscape:cy="-23.500001"
     inkscape:window-width="1165"
     inkscape:window-height="992"
     inkscape:window-x="392"
     inkscape:window-y="68"
     inkscape:window-maximized="0"
     inkscape:current-layer="layer1"
     showguides="true"
     inkscape:lockguides="true"><sodipodi:guide
       position="10.289877,253.89546"
       orientation="0,-1"
       id="guide243"
       inkscape:locked="true" /><sodipodi:guide
       position="-204.675,246.22483"
       orientation="1,0"
       id="guide244"
       inkscape:locked="true" /><sodipodi:guide
       position="-211.03602,245.47647"
       orientation="1,0"
       id="guide245"
       inkscape:locked="true" /><sodipodi:guide
       position="-211.03602,245.47647"
       orientation="1,0"
       id="guide257"
       inkscape:locked="true" /></sodipodi:namedview><defs
     id="defs1" /><g
     inkscape:label="Layer 1"
     inkscape:groupmode="layer"
     id="layer1"
     transform="translate(348.94803,-137.24133)"><rect
       style="fill:#bbbbbb;fill-opacity:0.26666668;stroke:none;stroke-width:1.021;stroke-linecap:round;stroke-linejoin:round;stroke-dasharray:none;stroke-opacity:1;paint-order:fill markers stroke;stop-color:#000000"
       id="rect2"
       width="2.7285218"
       height="2.7533274"
       x="-348.35272"
       y="137.83664"
       rx="0.23151043"
       ry="0.23151043" /><path
       id="rect660"
       style="color:#000000;display:inline;fill:#a3a3a3;stroke-linecap:square;stroke-linejoin:round;-inkscape-stroke:none"
       d="m -348.04679,137.66198 c -0.26552,0 -0.48421,0.21921 -0.48421,0.48472 v 2.12855 c 0,0.26552 0.21869,0.48473 0.48421,0.48473 h 2.12907 c 0.26552,0 0.48214,-0.21921 0.48214,-0.48473 v -2.12855 c 0,-0.26551 -0.21662,-0.48472 -0.48214,-0.48472 z m 0,0.27181 h 2.12907 c 0.12052,0 0.21239,0.0924 0.21239,0.21291 v 2.12855 c 0,0.12052 -0.0919,0.21291 -0.21239,0.21291 h -2.12907 c -0.12053,0 -0.21498,-0.0924 -0.21498,-0.21291 v -2.12855 c 0,-0.12052 0.0944,-0.21291 0.21498,-0.21291 z m 1.07797,0.24082 c -0.27747,-7.3e-4 -0.59438,0.23975 -0.6134,0.60874 -7.1e-4,0.0898 0.0724,0.16274 0.16226,0.16175 0.089,-1.6e-4 0.16089,-0.0727 0.1602,-0.16175 0,-0.15919 0.11612,-0.25953 0.24805,-0.28318 0.13193,-0.0237 0.25473,0.008 0.31264,0.22427 0.055,0.213 -0.14096,0.29519 -0.30124,0.39843 -0.0845,0.0686 -0.16494,0.13527 -0.1658,0.21705 -0.007,0.12459 -0.006,0.33176 -0.006,0.33176 1.7e-4,0.0884 0.0718,0.16003 0.1602,0.1602 0.0884,-1.7e-4 0.16003,-0.0718 0.1602,-0.1602 0,0 0.003,-0.15431 0.006,-0.26355 0.34826,-0.19375 0.54178,-0.37068 0.45687,-0.76736 -0.0819,-0.3062 -0.30234,-0.46539 -0.57981,-0.46612 z m -0.0434,1.77043 c -0.11873,0 -0.21498,0.0962 -0.21498,0.21498 0,0.11873 0.0962,0.21497 0.21498,0.21497 0.11872,0 0.21497,-0.0962 0.21497,-0.21497 0,-0.11873 -0.0962,-0.21498 -0.21497,-0.21498 z"
       sodipodi:nodetypes="ssssssssssssssssssccccccccccccczcccccc" /></g></svg>
