<?xml version="1.0" encoding="UTF-8" standalone="no"?>
<!-- Created with Inkscape (http://www.inkscape.org/) -->

<svg
   width="6.5021148mm"
   height="6.5021148mm"
   viewBox="0 0 6.5021148 6.5021148"
   version="1.1"
   id="svg1"
   sodipodi:docname="tool_move_canvas.svg"
   inkscape:version="1.3-dev (82aa67f2, 2022-10-21)"
   xmlns:inkscape="http://www.inkscape.org/namespaces/inkscape"
   xmlns:sodipodi="http://sodipodi.sourceforge.net/DTD/sodipodi-0.dtd"
   xmlns="http://www.w3.org/2000/svg"
   xmlns:svg="http://www.w3.org/2000/svg">
  <sodipodi:namedview
     id="namedview1"
     pagecolor="#ffffff"
     bordercolor="#000000"
     borderopacity="0.25"
     inkscape:showpageshadow="2"
     inkscape:pageopacity="0.0"
     inkscape:pagecheckerboard="0"
     inkscape:deskcolor="#d1d1d1"
     inkscape:document-units="mm"
     inkscape:zoom="19.206572"
     inkscape:cx="13.172575"
     inkscape:cy="13.432902"
     inkscape:window-width="1208"
     inkscape:window-height="864"
     inkscape:window-x="229"
     inkscape:window-y="12"
     inkscape:window-maximized="0"
     inkscape:current-layer="layer1" />
  <defs
     id="defs1" />
  <g
     id="layer1"
     transform="translate(-101.5189,-148.73766)">
    <g
       id="g1">
      <path
         style="font-variation-settings:normal;fill:#bbbbbb;fill-opacity:0.266667;stroke:none;stroke-width:1.803;stroke-linecap:butt;stroke-linejoin:round;stroke-miterlimit:4;stroke-dasharray:none;stroke-dashoffset:1.803;stroke-opacity:1;paint-order:markers fill stroke;stop-color:#000000"
         d="m -462.1358,1430.1879 1.5468,-0.7071 4.24264,1.8562 2.16551,0.8397 0.22098,-13.8328 1.76776,-1.1049 1.67938,0.3094 1.23744,-1.8562 h 1.85615 l 1.41422,1.9446 2.29809,-0.7071 1.94455,3.2703 3.0052,0.9281 0.53033,9.5018 -0.66291,8.6178 c 0,0 -2.07713,2.8727 -5.83363,3.9333 -3.75651,1.0607 -6.18719,0.5745 -7.6014,-1.0164 -1.41421,-1.591 -8.88303,-8.9715 -9.36916,-9.767 -0.48614,-0.7955 -0.44195,-2.2097 -0.44195,-2.2097 z"
         id="path11"
         transform="matrix(0.17780703,0,0,0.17780703,184.81544,-102.14332)" />
      <path
         id="path12"
         style="color:#000000;fill:#a3a3a3;fill-opacity:1;stroke-linejoin:round;stroke-dashoffset:1.803;paint-order:markers fill stroke"
         d="m -448.06388,1414.2569 c -1.22928,0 -2.28497,0.7877 -2.69531,1.8808 -0.38266,-0.1892 -0.8111,-0.2988 -1.26367,-0.2988 -1.58061,0 -2.88281,1.3003 -2.88281,2.8809 v 7.082 0.7949 0.5645 3.789 c -1.35032,-0.7968 -3.6654,-2.1653 -4.51563,-2.6562 -0.0401,-0.023 -0.0819,-0.043 -0.125,-0.059 -1.16379,-0.4525 -2.39977,-0.01 -3.07422,0.8887 -0.33722,0.4493 -0.53472,1.0426 -0.46679,1.666 0.0678,0.6221 0.39718,1.2336 0.93554,1.7422 h 0.002 c 0.0214,0.022 2.03184,2.056 4.18554,4.2715 1.08259,1.1137 2.19596,2.2679 3.09766,3.2207 0.9017,0.9528 1.62411,1.7512 1.79297,1.9707 1.30839,1.7009 4.67544,3.2327 9.9668,1.5039 2.83096,-0.925 4.47778,-3.1111 5.1621,-5.0059 0.6843,-1.8948 0.67774,-3.5723 0.67774,-3.5723 v -1.5625 c 0.002,-0.03 0.004,-0.057 0.004,-0.1015 v -5.5332 -1.8789 -3.9883 c 0,-1.5806 -1.30221,-2.8809 -2.88282,-2.8809 -0.38061,0 -0.74426,0.078 -1.07812,0.2149 v -0.4707 c 0,-1.5806 -1.30025,-2.8809 -2.88086,-2.8809 -0.45257,0 -0.88101,0.1096 -1.26367,0.2988 -0.41034,-1.0931 -1.46601,-1.8808 -2.69532,-1.8808 z m 0,1.8027 c 0.61294,0 1.07813,0.4652 1.07813,1.0781 v 8.6758 h -0.002 v 1.9102 c -5e-4,0.4986 0.40377,0.9028 0.90234,0.9023 0.49856,5e-4 0.90284,-0.4037 0.90234,-0.9023 v -0.8399 -1.0703 -7.0937 c 0,-0.613 0.4652,-1.0782 1.07813,-1.0782 0.61293,0 1.07812,0.4652 1.07812,1.0782 v 3.1367 3.7363 1.3945 1.9219 c -4.4e-4,0.4978 0.40263,0.9018 0.90039,0.9024 0.49853,4e-4 0.90279,-0.4039 0.90235,-0.9024 v -1.6914 -1.625 -3.7363 c 0,-0.6129 0.46519,-1.0781 1.07812,-1.0781 0.61294,0 1.07813,0.4652 1.07813,1.0781 v 3.9883 1.6484 5.7715 c 0,7e-4 2.5e-4,0.011 -0.002,0.045 -9.9e-4,0.018 -0.002,0.039 -0.002,0.057 v 1.5683 c 0,0 4.1e-4,1.3803 -0.56836,2.9551 -0.56876,1.5748 -1.82189,3.1823 -4.02539,3.9023 -4.77762,1.561 -7.29304,0 -7.97851,-0.8867 -0.32962,-0.4285 -1.00258,-1.1502 -1.91407,-2.1133 -0.91149,-0.9632 -2.02752,-2.1213 -3.11328,-3.2382 -2.17152,-2.2338 -4.21875,-4.3028 -4.21875,-4.3028 -0.007,-0.01 -0.0142,-0.015 -0.0215,-0.023 -0.29642,-0.2793 -0.36728,-0.4863 -0.38281,-0.6289 -0.0155,-0.1426 0.0186,-0.2601 0.11523,-0.3887 0.18967,-0.2527 0.61085,-0.4102 0.96289,-0.2852 1.17417,0.6801 5.75391,3.3829 5.75391,3.3829 0.60167,0.3567 1.36265,-0.078 1.36133,-0.7774 v -5.4648 -0.4649 -0.7988 -7.082 c 0,-0.613 0.46519,-1.0782 1.07812,-1.0782 0.61293,0 1.07813,0.4652 1.07812,1.0782 v 7.1465 h -0.002 v 2.1933 c -4.4e-4,0.4985 0.40382,0.9008 0.90235,0.9004 0.49853,4e-4 0.90278,-0.4019 0.90234,-0.9004 v -1.1484 -1.0449 -8.7286 c 0,-0.6129 0.46519,-1.0781 1.07812,-1.0781 z"
         transform="matrix(0.17780703,0,0,0.17780703,184.81544,-102.14332)" />
    </g>
  </g>
</svg>
