<?xml version="1.0" encoding="UTF-8" standalone="no"?>
<!-- Created with Inkscape (http://www.inkscape.org/) -->

<svg
   width="6.5021148mm"
   height="6.5021148mm"
   viewBox="0 0 6.5021148 6.5021148"
   version="1.1"
   id="svg1"
   sodipodi:docname="tool_text.svg"
   inkscape:version="1.3-dev (82aa67f2, 2022-10-21)"
   xmlns:inkscape="http://www.inkscape.org/namespaces/inkscape"
   xmlns:sodipodi="http://sodipodi.sourceforge.net/DTD/sodipodi-0.dtd"
   xmlns="http://www.w3.org/2000/svg"
   xmlns:svg="http://www.w3.org/2000/svg">
  <sodipodi:namedview
     id="namedview1"
     pagecolor="#ffffff"
     bordercolor="#000000"
     borderopacity="0.25"
     inkscape:showpageshadow="2"
     inkscape:pageopacity="0.0"
     inkscape:pagecheckerboard="0"
     inkscape:deskcolor="#d1d1d1"
     inkscape:document-units="mm"
     inkscape:zoom="9.6032858"
     inkscape:cx="12.287461"
     inkscape:cy="12.287461"
     inkscape:window-width="1454"
     inkscape:window-height="708"
     inkscape:window-x="116"
     inkscape:window-y="118"
     inkscape:window-maximized="0"
     inkscape:current-layer="layer1" />
  <defs
     id="defs1" />
  <g
     id="layer1"
     transform="translate(-101.5189,-148.73766)">
    <g
       id="g1">
      <path
         style="color:#000000;fill:#bbbbbb;fill-opacity:0.266667;stroke-width:0.974777;stroke-linecap:round;stroke-linejoin:round;paint-order:fill markers stroke"
         d="m 9.0929093,214.47761 v 3.17954 h 4.5295347 v 9.79074 h 3.310746 v -9.79074 h 4.528508 v -3.17954 z"
         id="path66-4"
         transform="matrix(0.32888161,0,0,0.32888161,99.745517,79.318087)" />
      <path
         style="color:#000000;fill:#a3a3a3;stroke-linecap:round;stroke-linejoin:round;paint-order:fill markers stroke"
         d="m 9.09375,213.99023 a 0.48743699,0.48743699 0 0 0 -0.488281,0.48829 v 3.17773 a 0.48743699,0.48743699 0 0 0 0.488281,0.48828 h 4.041016 v 9.30274 a 0.48743699,0.48743699 0 0 0 0.488281,0.48828 h 3.310547 a 0.48743699,0.48743699 0 0 0 0.486328,-0.48828 v -9.30274 h 4.041015 a 0.48743699,0.48743699 0 0 0 0.488282,-0.48828 v -3.17773 a 0.48743699,0.48743699 0 0 0 -0.488282,-0.48829 z m 0.486328,0.97461 h 11.394531 v 2.20508 h -4.041015 a 0.48743699,0.48743699 0 0 0 -0.488282,0.48633 v 9.30469 h -2.335937 v -9.30469 a 0.48743699,0.48743699 0 0 0 -0.486328,-0.48633 H 9.580078 Z"
         id="path67-2"
         transform="matrix(0.32888161,0,0,0.32888161,99.745517,79.318087)" />
    </g>
  </g>
</svg>
