<?xml version="1.0" encoding="UTF-8" standalone="no"?>
<!-- Created with Inkscape (http://www.inkscape.org/) -->

<svg
   width="6.5021148mm"
   height="6.5021148mm"
   viewBox="0 0 6.5021148 6.5021148"
   version="1.1"
   id="svg1"
   xmlns="http://www.w3.org/2000/svg"
   xmlns:svg="http://www.w3.org/2000/svg">
  <defs
     id="defs1" />
  <g
     id="layer1"
     transform="translate(-101.5189,-148.73766)">
    <g
       id="g5">
      <path
         id="path20-7"
         style="font-variation-settings:normal;fill:#bbbbbb;fill-opacity:0.266667;stroke:none;stroke-width:0.290029;stroke-linecap:butt;stroke-linejoin:round;stroke-miterlimit:4;stroke-dasharray:none;stroke-dashoffset:1.803;stroke-opacity:1;paint-order:fill markers stroke;stop-color:#000000"
         d="m 102.33017,154.29042 2.8956,-0.48253 0.38188,-1.24652 c 0,0 0.48611,-0.66122 0.68381,-0.86464 l -1.28696,-1.28696 c 0,0 -0.46249,0.52272 -0.82442,0.68358 -0.36193,0.16086 -1.30718,0.38211 -1.30718,0.38211 z m 3.96129,-2.59369 0.01,0.01 c 0,0 0.19081,-0.21123 -2e-4,-0.0202 -0.003,0.003 -0.006,0.007 -0.01,0.0102 z m -2.49194,1.19054 a 0.35545183,0.35545183 0 0 1 2.2e-4,-0.50274 0.35545183,0.35545183 0 0 1 0.50252,0 0.35545183,0.35545183 0 0 1 2.2e-4,0.50274 0.35545183,0.35545183 0 0 1 -0.50296,0 z" />
      <path
         id="path21-7"
         style="color:#000000;fill:#a3a3a3;fill-opacity:1;stroke-width:0.160859;stroke-linecap:round;stroke-linejoin:round;paint-order:fill markers stroke"
         d="m 106.03284,149.33039 c -0.33691,9e-5 -0.67379,0.12867 -0.9307,0.3855 l -0.42839,0.4284 c -0.0569,0.0567 -0.0569,0.14899 0,0.20567 l 0.12557,0.12558 c -0.48565,0.56273 -1.23623,0.62554 -1.98799,0.82734 -0.0545,0.0145 -0.0956,0.0592 -0.10542,0.11472 l -0.50385,2.85461 0.0315,-0.031 c -0.0567,0.0566 -0.0571,0.14795 -5.2e-4,0.20464 l 5.2e-4,5.2e-4 5.1e-4,5.1e-4 c 0.0567,0.0565 0.14807,0.0561 0.20464,-5.1e-4 l -0.031,0.0315 2.85461,-0.50385 c 0.0555,-0.01 0.10022,-0.0509 0.11472,-0.10542 0.2018,-0.75177 0.26459,-1.50234 0.82734,-1.98799 l 0.12558,0.12557 c 0.0567,0.0569 0.14846,0.0569 0.20515,0 l 0.4284,-0.42891 c 0.51386,-0.51386 0.51386,-1.34753 0,-1.86139 -0.25693,-0.25692 -0.59379,-0.3856 -0.93069,-0.3855 z m -1.02785,1.35082 0.99322,0.99322 c -0.61888,0.54437 -0.70408,1.33942 -0.8785,2.03037 l -2.35489,0.41548 1.05161,-1.05162 c 0.18353,0.0955 0.4167,0.0665 0.57,-0.0868 0.18891,-0.18891 0.18891,-0.49942 0,-0.68833 -0.1889,-0.18891 -0.49944,-0.18891 -0.68833,0 -0.15324,0.15324 -0.18215,0.38644 -0.0868,0.56999 l -1.0511,1.05161 0.41496,-2.35489 c 0.69105,-0.17446 1.48548,-0.2599 2.02985,-0.87902 z m -0.96273,1.75855 c 0.0501,5e-5 0.1,0.0198 0.13901,0.0589 0.0781,0.0781 0.0781,0.19994 0,0.27802 -0.0781,0.0781 -0.19995,0.0786 -0.27802,5.2e-4 l -5.2e-4,-5.2e-4 c -0.078,-0.078 -0.0775,-0.20054 5.2e-4,-0.27854 0.0391,-0.0391 0.0889,-0.0584 0.13901,-0.0584 z" />
    </g>
  </g>
</svg>
