<?xml version="1.0" encoding="UTF-8" standalone="no"?>
<!-- Created with Inkscape (http://www.inkscape.org/) -->

<svg
   width="6.5021148mm"
   height="6.5021148mm"
   viewBox="0 0 6.5021148 6.5021148"
   version="1.1"
   id="svg1"
   inkscape:version="1.3-dev (82aa67f2, 2022-10-21)"
   sodipodi:docname="tool_crop.svg"
   inkscape:dataloss="true"
   inkscape:export-filename="tool_crop.svg"
   inkscape:export-xdpi="121.09906"
   inkscape:export-ydpi="121.09906"
   xmlns:inkscape="http://www.inkscape.org/namespaces/inkscape"
   xmlns:sodipodi="http://sodipodi.sourceforge.net/DTD/sodipodi-0.dtd"
   xmlns="http://www.w3.org/2000/svg"
   xmlns:svg="http://www.w3.org/2000/svg">
  <sodipodi:namedview
     id="namedview1"
     pagecolor="#ffffff"
     bordercolor="#000000"
     borderopacity="0.25"
     inkscape:showpageshadow="2"
     inkscape:pageopacity="0.0"
     inkscape:pagecheckerboard="0"
     inkscape:deskcolor="#d1d1d1"
     inkscape:document-units="mm"
     inkscape:zoom="17.960512"
     inkscape:cx="10.606602"
     inkscape:cy="16.758988"
     inkscape:window-width="1400"
     inkscape:window-height="1033"
     inkscape:window-x="462"
     inkscape:window-y="47"
     inkscape:window-maximized="0"
     inkscape:current-layer="layer1" />
  <defs
     id="defs1" />
  <g
     inkscape:label="Layer 1"
     inkscape:groupmode="layer"
     id="layer1"
     transform="translate(-101.5189,-148.73766)">
    <g
       id="use51"
       transform="matrix(0.17780703,0,0,0.17780703,185.05625,-19.016632)">
      <path
         id="path13-2"
         style="font-variation-settings:normal;fill:#a3a3a3;fill-opacity:1;stroke:none;stroke-width:1.803;stroke-linecap:round;stroke-linejoin:round;stroke-miterlimit:4;stroke-dasharray:none;stroke-dashoffset:1.803;stroke-opacity:1;paint-order:stroke fill markers;stop-color:#000000"
         d="m -464.31245,948.97047 v 1.8027 1.2402 h 1.80273 v -1.2402 h 1.24024 v -1.8027 h -1.24024 z m 4.50195,0 v 1.8027 h 3.04297 v -1.8027 z m 4.50195,0 v 1.8027 h 3.04297 v -1.8027 z m 4.50196,0 v 1.8027 h 3.04297 v -1.8027 z m 4.50195,0 v 1.8027 h 3.04297 v -1.8027 z m 4.50195,0 v 1.8027 h 1.24024 v 1.2402 h 1.80273 v -3.0429 z m -22.50976,4.5019 v 3.043 h 1.80273 v -3.043 z m 23.75,0 v 3.043 h 1.80273 v -3.043 z m -23.75,4.502 v 3.043 h 1.80273 v -3.043 z m 23.75,0 v 3.043 h 1.80273 v -3.043 z m -23.75,4.5019 v 3.043 h 1.80273 v -3.043 z m 23.75,0 v 3.043 h 1.80273 v -3.043 z m -23.75,4.502 v 3.043 h 1.80273 v -3.043 z m 23.75,0 v 3.043 h 1.80273 v -3.043 z m -23.75,4.5019 v 1.2403 1.8027 h 1.80273 1.24024 v -1.8027 h -1.24024 v -1.2403 z m 23.75,0 v 1.2403 h -1.24024 v 1.8027 h 3.04297 v -1.8027 -1.2403 z m -19.24805,1.2403 v 1.8027 h 3.04297 v -1.8027 z m 4.50195,0 v 1.8027 h 3.04297 v -1.8027 z m 4.50196,0 v 1.8027 h 3.04297 v -1.8027 z m 4.50195,0 v 1.8027 h 3.04297 v -1.8027 z" />
      <path
         id="path14"
         style="fill:#bbbbbb;fill-opacity:0.266667;stroke-width:1.803;stroke-linejoin:round;stroke-dashoffset:1.803;paint-order:fill markers stroke;stop-color:#000000"
         d="m -461.10457,952.01185 h 19.13692 v 19.46995 h -19.13692 z" />
    </g>
  </g>
</svg>
