<?xml version="1.0" encoding="UTF-8" standalone="no"?>
<!-- Created with Inkscape (http://www.inkscape.org/) -->

<svg
   width="6.5021148mm"
   height="6.5021148mm"
   viewBox="0 0 6.5021148 6.5021148"
   version="1.1"
   id="svg1"
   sodipodi:docname="tool_gradient.svg"
   inkscape:version="1.3-dev (82aa67f2, 2022-10-21)"
   xmlns:inkscape="http://www.inkscape.org/namespaces/inkscape"
   xmlns:sodipodi="http://sodipodi.sourceforge.net/DTD/sodipodi-0.dtd"
   xmlns:xlink="http://www.w3.org/1999/xlink"
   xmlns="http://www.w3.org/2000/svg"
   xmlns:svg="http://www.w3.org/2000/svg">
  <sodipodi:namedview
     id="namedview1"
     pagecolor="#ffffff"
     bordercolor="#000000"
     borderopacity="0.25"
     inkscape:showpageshadow="2"
     inkscape:pageopacity="0.0"
     inkscape:pagecheckerboard="0"
     inkscape:deskcolor="#d1d1d1"
     inkscape:document-units="mm"
     inkscape:zoom="19.206572"
     inkscape:cx="13.042411"
     inkscape:cy="7.1850408"
     inkscape:window-width="1361"
     inkscape:window-height="890"
     inkscape:window-x="293"
     inkscape:window-y="91"
     inkscape:window-maximized="0"
     inkscape:current-layer="svg1" />
  <defs
     id="defs1">
    <linearGradient
       id="linearGradient53">
      <stop
         style="stop-color:#a3a3a3;stop-opacity:1;"
         offset="0"
         id="stop52" />
      <stop
         style="stop-color:#a3a3a3;stop-opacity:0;"
         offset="1"
         id="stop53" />
    </linearGradient>
    <linearGradient
       xlink:href="#linearGradient53"
       id="linearGradient11"
       gradientUnits="userSpaceOnUse"
       gradientTransform="matrix(0.32888162,0,0,0.32888162,-85.013124,-280.82896)"
       x1="-711.39618"
       y1="1147.2438"
       x2="-692.50726"
       y2="1147.2438" />
  </defs>
  <g
     id="layer1"
     transform="translate(-101.5189,-148.73766)">
    <g
       id="g472"
       transform="translate(419.70703,53.801536)">
      <path
         id="path8"
         style="color:#000000;font-variation-settings:normal;opacity:1;vector-effect:none;fill:url(#linearGradient11);fill-opacity:1;stroke:#a3a3a3;stroke-width:0.32066;stroke-linecap:round;stroke-linejoin:round;stroke-miterlimit:4;stroke-dasharray:none;stroke-dashoffset:0;stroke-opacity:1;-inkscape-stroke:none;paint-order:fill markers stroke;stop-color:#000000;stop-opacity:1"
         d="m -317.10809,95.977921 v 4.418339 h 4.34237 l 0.004,-1.644348 c -10e-4,0 -0.002,8e-6 -0.004,0 v -0.0098 a 0.5549472,0.5549472 0 0 0 0.55449,-0.555005 0.5549472,0.5549472 0 0 0 -0.55449,-0.555005 v -0.01395 c 10e-4,-9e-6 0.002,0 0.004,0 0,0.118391 -0.004,-1.64021 -0.004,-1.64021 z" />
      <path
         id="path10"
         style="color:#000000;fill:#a3a3a3;stroke-linecap:round;stroke-linejoin:round;-inkscape-stroke:none;paint-order:fill markers stroke"
         d="m -317.10758,95.818243 c -0.0884,8e-5 -0.16011,0.0718 -0.16019,0.16019 v 1.51206 c -0.31721,0.0732 -0.55656,0.35889 -0.55656,0.69711 0,0.33811 0.23946,0.62288 0.55656,0.69608 v 1.512577 c 9e-5,0.0884 0.0718,0.1601 0.16019,0.16019 h 4.34186 c 0.0884,-9e-5 0.1601,-0.0718 0.16019,-0.16019 l 0.004,-1.513087 c 0.3149,-0.0745 0.55087,-0.35871 0.55087,-0.69557 0,-0.33664 -0.23575,-0.62074 -0.55035,-0.69556 -0.001,-0.50439 -0.003,-0.98392 -0.004,-1.51361 -8e-5,-0.0884 -0.0718,-0.16011 -0.16019,-0.16019 z m 0.1602,0.32039 h 4.02146 c 0.003,0.48044 -10e-5,0.86611 0.003,1.35186 -0.26661,0.0605 -0.47803,0.27066 -0.5395,0.53692 h -2.94866 c -0.0614,-0.26509 -0.27135,-0.47497 -0.5364,-0.5364 z m 4.18166,1.65416 c 0.21983,0 0.39481,0.17497 0.39481,0.39481 0,0.21984 -0.17498,0.39429 -0.39481,0.39429 -0.2287,0 -0.38427,-0.19508 -0.38427,-0.39428 0,-0.16328 0.13991,-0.3948 0.38447,-0.3948 z m -3.64526,0.55501 h 2.94866 c 0.0973,0.30365 0.21444,0.43718 0.54043,0.54522 l -0.004,1.343587 h -4.02146 v -1.352887 c 0.26505,-0.0613 0.47496,-0.27089 0.5364,-0.53589 z" />
    </g>
  </g>
</svg>
