<?xml version="1.0" encoding="UTF-8" standalone="no"?>
<!-- Created with Inkscape (http://www.inkscape.org/) -->

<svg
   width="6.5021148mm"
   height="6.5021148mm"
   viewBox="0 0 6.5021148 6.5021148"
   version="1.1"
   id="svg1"
   xmlns="http://www.w3.org/2000/svg"
   xmlns:svg="http://www.w3.org/2000/svg">
  <defs
     id="defs1" />
  <g
     id="layer1"
     transform="translate(-101.5189,-148.73766)">
    <g
       id="g7">
      <path
         style="color:#000000;fill:#bbbbbb;fill-opacity:0.266667;stroke-width:0.320586;stroke-linejoin:round;stroke-dashoffset:1.803;-inkscape-stroke:none;paint-order:fill markers stroke"
         d="m 105.22286,150.60123 -2.86714,2.88937 -0.17781,1.08907 1.10018,-0.1667 3.02272,-3.0894 z"
         id="path6" />
      <path
         id="path18"
         style="color:#000000;fill:#a3a3a3;fill-opacity:1;stroke-width:0.177807;stroke-linejoin:round;stroke-dashoffset:1.803;paint-order:fill markers stroke"
         d="m 106.75682,149.22962 c -0.19814,-2e-5 -0.39677,0.0754 -0.54725,0.22583 l -0.76636,0.76636 -0.18862,-0.18811 c -0.10839,-0.10838 -0.2828,-0.10838 -0.39119,0 -0.10838,0.10837 -0.10838,0.28332 0,0.39171 0.0515,0.0515 0.103,0.10301 0.15451,0.15451 l -2.77606,2.79777 a 0.16030907,0.16030907 0 0 0 -0.0444,0.0873 l -0.17777,1.08882 a 0.16030907,0.16030907 0 0 0 0.18242,0.18397 l 1.10019,-0.1664 a 0.16030907,0.16030907 0 0 0 0.0904,-0.0465 l 2.75487,-2.81585 0.18603,0.18604 c 0.10838,0.10839 0.28281,0.10839 0.39119,0 0.10839,-0.10839 0.10838,-0.28228 0,-0.39067 l -0.1881,-0.18862 0.76688,-0.76688 c 0.30094,-0.30096 0.30094,-0.79253 0,-1.09347 -0.15047,-0.15046 -0.3486,-0.22583 -0.54674,-0.22583 z m -1.51308,1.5782 0.007,0.005 c 0.22351,0.22351 0.44724,0.44673 0.67076,0.67024 l -2.72025,2.77968 -0.82941,0.12609 0.13436,-0.82166 z" />
    </g>
  </g>
</svg>
