<?xml version="1.0" encoding="UTF-8" standalone="no"?>
<!-- Created with Inkscape (http://www.inkscape.org/) -->

<svg
   width="6.5021148mm"
   height="6.5021148mm"
   viewBox="0 0 6.5021148 6.5021148"
   version="1.1"
   id="svg1"
   inkscape:version="1.3-dev (82aa67f2, 2022-10-21)"
   sodipodi:docname="tool_crop.svg"
   inkscape:export-filename="tool_move.svg"
   inkscape:export-xdpi="121.09906"
   inkscape:export-ydpi="121.09906"
   xmlns:inkscape="http://www.inkscape.org/namespaces/inkscape"
   xmlns:sodipodi="http://sodipodi.sourceforge.net/DTD/sodipodi-0.dtd"
   xmlns="http://www.w3.org/2000/svg"
   xmlns:svg="http://www.w3.org/2000/svg">
  <sodipodi:namedview
     id="namedview1"
     pagecolor="#ffffff"
     bordercolor="#000000"
     borderopacity="0.25"
     inkscape:showpageshadow="2"
     inkscape:pageopacity="0.0"
     inkscape:pagecheckerboard="0"
     inkscape:deskcolor="#d1d1d1"
     inkscape:document-units="mm"
     inkscape:zoom="17.960512"
     inkscape:cx="10.634441"
     inkscape:cy="16.786827"
     inkscape:window-width="1400"
     inkscape:window-height="1033"
     inkscape:window-x="462"
     inkscape:window-y="0"
     inkscape:window-maximized="0"
     inkscape:current-layer="layer1" />
  <defs
     id="defs1" />
  <g
     inkscape:label="Layer 1"
     inkscape:groupmode="layer"
     id="layer1"
     transform="translate(-101.5189,-148.73766)">
    <g
       id="g1">
      <path
         id="path15"
         style="color:#000000;fill:#a3a3a3;fill-opacity:1;stroke-linecap:round;stroke-linejoin:round;paint-order:fill markers stroke"
         d="m -276.18735,1341.5956 a 0.90149999,0.90149999 0 0 0 -0.90234,0.9024 v 3.4922 h 1.80469 v -3.4922 a 0.90149999,0.90149999 0 0 0 -0.90235,-0.9024 z m -6.14648,6.1504 a 0.90149999,0.90149999 0 0 0 -0.90625,0.8985 0.90149999,0.90149999 0 0 0 0.89844,0.9062 l 5.25195,0.025 v 18.1973 a 0.90159014,0.90159014 0 0 0 0.90234,0.9023 h 16.42188 v -1.8047 H -275.285 v -17.2851 l 17.32031,0.084 v 24.2539 a 0.90149999,0.90149999 0 0 0 0.90234,0.9023 0.90149999,0.90149999 0 0 0 0.90235,-0.9023 v -5.2481 h 5.24804 a 0.90149999,0.90149999 0 0 0 0.90235,-0.9023 0.90149999,0.90149999 0 0 0 -0.90235,-0.9024 H -256.16 v -18.0976 a 0.90159014,0.90159014 0 0 0 -0.89844,-0.9024 z"
         transform="matrix(0.17780703,0,0,0.17780703,152.17772,-89.510681)" />
      <path
         id="path16-00"
         style="fill:#bbbbbb;fill-opacity:0.266667;stroke-width:1.803;stroke-linejoin:round;stroke-dashoffset:1.803;paint-order:fill markers stroke;stop-color:#000000"
         d="m -457.09857,909.4001 h 13.83359 v 13.9398 h -13.83359 z"
         transform="matrix(0.17780703,0,0,0.17780703,184.81541,-10.904705)" />
    </g>
  </g>
</svg>
