<?xml version="1.0" encoding="UTF-8" standalone="no"?>
<!-- Created with Inkscape (http://www.inkscape.org/) -->

<svg
   width="6.5021148mm"
   height="6.5021148mm"
   viewBox="0 0 6.5021148 6.5021148"
   version="1.1"
   id="svg1"
   xmlns="http://www.w3.org/2000/svg"
   xmlns:svg="http://www.w3.org/2000/svg">
  <defs
     id="defs1" />
  <g
     id="layer1"
     transform="translate(-101.5189,-148.73766)">
    <g
       id="path59"
       transform="matrix(0.20280212,0.03174106,-0.03174106,0.20280212,117.66809,82.989002)">
      <path
         style="color:#000000;fill:#bbbbbb;fill-opacity:0.266667;stroke-width:1.56177;stroke-linejoin:round;stroke-dashoffset:2.88873;-inkscape-stroke:none;paint-order:fill markers stroke"
         d="m -0.91726013,351.99501 -8.01391187,-2.82393 -6.749039,5.16216 0.209286,-8.49433 -6.99507,-4.82353 8.143257,-2.42584 2.425849,-8.14326 4.823524,6.99507 8.4943266,-0.20929 -5.1621558,6.74904 z"
         id="path5" />
      <path
         style="color:#000000;fill:#a3a3a3;stroke-linejoin:round;stroke-dashoffset:2.88873;-inkscape-stroke:none;paint-order:fill markers stroke"
         d="m -12.019531,329.67578 a 0.78096307,0.78096307 0 0 0 -0.625,0.54688 l -2.306641,7.73828 -7.738281,2.30664 a 0.78096307,0.78096307 0 0 0 -0.220703,1.39062 l 6.648437,4.58399 -0.199218,8.07226 a 0.78096307,0.78096307 0 0 0 1.255859,0.63867 l 6.4121092,-4.90429 7.6152344,2.68359 a 0.78096307,0.78096307 0 0 0 0.99609378,-0.99609 l -2.68359378,-7.61719 4.90625,-6.41211 a 0.78096307,0.78096307 0 0 0 -0.6386719,-1.25586 l -8.0722656,0.19922 -4.5839841,-6.64648 a 0.78096307,0.78096307 0 0 0 -0.765625,-0.32813 z m 0.40625,2.55469 3.8964841,5.6543 a 0.78096307,0.78096307 0 0 0 0.6621094,0.33789 l 6.86328125,-0.16797 -4.16992185,5.45117 a 0.78096307,0.78096307 0 0 0 -0.1171875,0.73437 l 2.2832031,6.47657 -6.4765625,-2.28125 a 0.78096307,0.78096307 0 0 0 -0.734375,0.11523 l -5.453125,4.17188 0.169922,-6.86524 a 0.78096307,0.78096307 0 0 0 -0.337891,-0.66211 l -5.654297,-3.89648 6.582032,-1.96094 a 0.78096307,0.78096307 0 0 0 0.52539,-0.52539 z"
         id="path6" />
    </g>
  </g>
</svg>
